<svg xmlns="http://www.w3.org/2000/svg" viewBox="0 0 800 800"><rect width="100%" height="100%" fill="#060810"/><g fill="#5143d7"><rect width="336" height="3" x="364" y="580.5" rx="1.5" transform="rotate(45 532 582)" opacity=".47"/><rect width="230" height="3" x="-48" y="547.5" rx="1.5" transform="rotate(45 67 549)" opacity=".4"/><rect width="460" height="3" x="-158" y="364.5" rx="1.5" transform="rotate(45 72 366)" opacity=".49"/><rect width="236" height="3" x="199" y="34.5" rx="1.5" transform="rotate(45 317 36)" opacity=".43"/><rect width="447" height="3" x="4.5" y="558.5" rx="1.5" transform="rotate(45 228 560)" opacity=".79"/><rect width="286" height="3" x="79" y="411.5" rx="1.5" transform="rotate(45 222 413)" opacity=".46"/><rect width="739" height="3" x="-51.5" y="613.5" rx="1.5" transform="rotate(45 318 615)" opacity=".14"/><rect width="395" height="3" x="510.5" y="630.5" rx="1.5" transform="rotate(45 708 632)" opacity=".95"/><rect width="405" height="3" x="246.5" y="770.5" rx="1.5" transform="rotate(45 449 772)" opacity=".21"/><rect width="745" height="3" x="100.5" y="246.5" rx="1.5" transform="rotate(45 473 248)" opacity=".46"/><rect width="56" height="3" x="665" y="160.5" rx="1.5" transform="rotate(45 693 162)" opacity=".35"/><rect width="408" height="3" x="200" y="71.5" rx="1.5" transform="rotate(45 404 73)" opacity=".59"/><rect width="351" height="3" x="70.5" y="750.5" rx="1.5" transform="rotate(45 246 752)" opacity=".86"/><rect width="305" height="3" x="-124.5" y="649.5" rx="1.5" transform="rotate(45 28 651)" opacity=".71"/><rect width="528" height="3" x="219" y="35.5" rx="1.5" transform="rotate(45 483 37)" opacity=".26"/><rect width="194" height="3" x="384" y="711.5" rx="1.5" transform="rotate(45 481 713)" opacity=".1"/><rect width="609" height="3" x="346.5" y="697.5" rx="1.5" transform="rotate(45 651 699)" opacity=".17"/><rect width="274" height="3" x="-21" y="600.5" rx="1.5" transform="rotate(45 116 602)" opacity=".8"/><rect width="380" height="3" x="-104" y="671.5" rx="1.5" transform="rotate(45 86 673)" opacity=".46"/><rect width="581" height="3" x="281.5" y="755.5" rx="1.5" transform="rotate(45 572 757)" opacity=".79"/><rect width="381" height="3" x="-42.5" y="516.5" rx="1.5" transform="rotate(45 148 518)" opacity=".4"/><rect width="323" height="3" x="389.5" y="661.5" rx="1.5" transform="rotate(45 551 663)" opacity=".93"/><rect width="179" height="3" x="672.5" y="578.5" rx="1.5" transform="rotate(45 762 580)" opacity=".53"/><rect width="321" height="3" x="-113.5" y="493.5" rx="1.5" transform="rotate(45 47 495)" opacity=".51"/><rect width="61" height="3" x="345.5" y="383.5" rx="1.5" transform="rotate(45 376 385)" opacity=".59"/><rect width="338" height="3" x="214" y="695.5" rx="1.5" transform="rotate(45 383 697)" opacity=".77"/><rect width="170" height="3" x="688" y="379.5" rx="1.5" transform="rotate(45 773 381)" opacity=".66"/><rect width="326" height="3" x="51" y="700.5" rx="1.5" transform="rotate(45 214 702)" opacity=".54"/><rect width="465" height="3" x="255.5" y="443.5" rx="1.5" transform="rotate(45 488 445)" opacity=".4"/><rect width="354" height="3" x="268" y="561.5" rx="1.5" transform="rotate(45 445 563)" opacity=".72"/><rect width="137" height="3" x="86.5" y="674.5" rx="1.5" transform="rotate(45 155 676)" opacity=".93"/><rect width="376" height="3" x="-61" y="285.5" rx="1.5" transform="rotate(45 127 287)" opacity=".77"/><rect width="199" height="3" x="599.5" y="768.5" rx="1.5" transform="rotate(45 699 770)" opacity=".67"/><rect width="238" height="3" x="480" y="233.5" rx="1.5" transform="rotate(45 599 235)" opacity=".21"/><rect width="344" height="3" x="600" y="115.5" rx="1.5" transform="rotate(45 772 117)" opacity=".34"/><rect width="27" height="3" x="737.5" y="23.5" rx="1.5" transform="rotate(45 751 25)" opacity=".45"/><rect width="340" height="3" x="61" y="156.5" rx="1.5" transform="rotate(45 231 158)" opacity=".55"/><rect width="671" height="3" x="220.5" y="490.5" rx="1.5" transform="rotate(45 556 492)" opacity=".71"/><rect width="115" height="3" x="-21.5" y="269.5" rx="1.5" transform="rotate(45 36 271)" opacity=".27"/><rect width="144" height="3" x="642" y="66.5" rx="1.5" transform="rotate(45 714 68)" opacity=".77"/><rect width="288" height="3" x="291" y="637.5" rx="1.5" transform="rotate(45 435 639)" opacity=".77"/><rect width="288" height="3" x="424" y="133.5" rx="1.5" transform="rotate(45 568 135)" opacity=".49"/><rect width="38" height="3" x="699" y="345.5" rx="1.5" transform="rotate(45 718 347)" opacity=".92"/><rect width="584" height="3" x="-174" y="53.5" rx="1.5" transform="rotate(45 118 55)" opacity=".21"/><rect width="245" height="3" x="568.5" y="428.5" rx="1.5" transform="rotate(45 691 430)" opacity=".53"/><rect width="267" height="3" x="466.5" y="31.5" rx="1.5" transform="rotate(45 600 33)" opacity=".5"/><rect width="173" height="3" x="586.5" y="506.5" rx="1.5" transform="rotate(45 673 508)" opacity=".42"/><rect width="144" height="3" x="149" y="60.5" rx="1.5" transform="rotate(45 221 62)" opacity=".7"/><rect width="302" height="3" x="210" y="526.5" rx="1.5" transform="rotate(45 361 528)" opacity=".49"/><rect width="301" height="3" x="-124.5" y="582.5" rx="1.5" transform="rotate(45 26 584)" opacity=".57"/><rect width="406" height="3" x="-81" y="759.5" rx="1.5" transform="rotate(45 122 761)" opacity=".49"/><rect width="382" height="3" x="141" y="750.5" rx="1.5" transform="rotate(45 332 752)" opacity=".87"/><rect width="623" height="3" x="-197.5" y="185.5" rx="1.5" transform="rotate(45 114 187)" opacity=".59"/><rect width="402" height="3" x="-165" y="97.5" rx="1.5" transform="rotate(45 36 99)" opacity=".29"/><rect width="201" height="3" x="157.5" y="488.5" rx="1.5" transform="rotate(45 258 490)" opacity=".19"/><rect width="154" height="3" x="691" y="232.5" rx="1.5" transform="rotate(45 768 234)" opacity=".65"/><rect width="623" height="3" x="-73.5" y="245.5" rx="1.5" transform="rotate(45 238 247)" opacity=".66"/><rect width="250" height="3" x="-94" y="426.5" rx="1.5" transform="rotate(45 31 428)" opacity=".44"/><rect width="88" height="3" x="299" y="216.5" rx="1.5" transform="rotate(45 343 218)" opacity=".67"/><rect width="83" height="3" x="242.5" y="343.5" rx="1.5" transform="rotate(45 284 345)" opacity=".78"/><rect width="70" height="3" x="156" y="325.5" rx="1.5" transform="rotate(45 191 327)" opacity=".16"/><rect width="218" height="3" x="260" y="300.5" rx="1.5" transform="rotate(45 369 302)" opacity=".39"/><rect width="345" height="3" x="458.5" y="320.5" rx="1.5" transform="rotate(45 631 322)" opacity=".68"/><rect width="469" height="3" x="469.5" y="262.5" rx="1.5" transform="rotate(45 704 264)" opacity=".14"/><rect width="248" height="3" x="91" y="624.5" rx="1.5" transform="rotate(45 215 626)" opacity=".52"/><rect width="198" height="3" x="375" y="350.5" rx="1.5" transform="rotate(45 474 352)" opacity=".44"/><rect width="651" height="3" x="146.5" y="142.5" rx="1.5" transform="rotate(45 472 144)" opacity=".73"/><rect width="536" height="3" x="311" y="384.5" rx="1.5" transform="rotate(45 579 386)" opacity=".84"/><rect width="332" height="3" x="600" y="485.5" rx="1.5" transform="rotate(45 766 487)" opacity=".72"/><rect width="441" height="3" x="545.5" y="716.5" rx="1.5" transform="rotate(45 766 718)" opacity=".43"/><rect width="56" height="3" x="6" y="743.5" rx="1.5" transform="rotate(45 34 745)" opacity=".5"/><rect width="53" height="3" x="104.5" y="430.5" rx="1.5" transform="rotate(45 131 432)" opacity=".82"/><rect width="295" height="3" x="193.5" y="129.5" rx="1.5" transform="rotate(45 341 131)" opacity=".34"/><rect width="180" height="3" x="533" y="579.5" rx="1.5" transform="rotate(45 623 581)" opacity=".21"/><rect width="54" height="3" x="309" y="445.5" rx="1.5" transform="rotate(45 336 447)" opacity=".5"/><rect width="472" height="3" x="415" y="83.5" rx="1.5" transform="rotate(45 651 85)" opacity=".82"/><rect width="56" height="3" x="397" y="467.5" rx="1.5" transform="rotate(45 425 469)" opacity=".47"/></g></svg>