<svg xmlns="http://www.w3.org/2000/svg" viewBox="0 0 800 800"><rect width="100%" height="100%" fill="#060810"/><g fill="hsl(32, 100%, 51%)"><rect width="63" height="3" x="18.5" y="40.5" rx="1.5" transform="rotate(45 50 42)" opacity=".73"/><rect width="611" height="3" x="378.5" y="293.5" rx="1.5" transform="rotate(45 684 295)" opacity=".72"/><rect width="501" height="3" x="-216.5" y="331.5" rx="1.5" transform="rotate(45 34 333)" opacity=".94"/><rect width="188" height="3" x="372" y="222.5" rx="1.5" transform="rotate(45 466 224)" opacity=".08"/><rect width="477" height="3" x=".5" y="290.5" rx="1.5" transform="rotate(45 239 292)" opacity=".4"/><rect width="277" height="3" x="247.5" y="86.5" rx="1.5" transform="rotate(45 386 88)" opacity=".6"/><rect width="231" height="3" x="-32.5" y="517.5" rx="1.5" transform="rotate(45 83 519)" opacity=".35"/><rect width="340" height="3" x="390" y="50.5" rx="1.5" transform="rotate(45 560 52)" opacity=".49"/><rect width="423" height="3" x="132.5" y="766.5" rx="1.5" transform="rotate(45 344 768)" opacity=".55"/><rect width="282" height="3" x="-115" y="509.5" rx="1.5" transform="rotate(45 26 511)" opacity=".9"/><rect width="513" height="3" x="508.5" y="751.5" rx="1.5" transform="rotate(45 765 753)" opacity=".16"/><rect width="757" height="3" x="116.5" y="339.5" rx="1.5" transform="rotate(45 495 341)" opacity=".41"/><rect width="297" height="3" x="149.5" y="446.5" rx="1.5" transform="rotate(45 298 448)" opacity=".86"/><rect width="57" height="3" x="739.5" y="639.5" rx="1.5" transform="rotate(45 768 641)" opacity=".24"/><rect width="461" height="3" x="150.5" y="694.5" rx="1.5" transform="rotate(45 381 696)" opacity=".68"/><rect width="237" height="3" x="507.5" y="737.5" rx="1.5" transform="rotate(45 626 739)" opacity=".09"/><rect width="527" height="3" x="-52.5" y="476.5" rx="1.5" transform="rotate(45 211 478)" opacity=".37"/><rect width="383" height="3" x="70.5" y="175.5" rx="1.5" transform="rotate(45 262 177)" opacity=".67"/><rect width="60" height="3" x="706" y="137.5" rx="1.5" transform="rotate(45 736 139)" opacity=".92"/><rect width="346" height="3" x="-126" y="677.5" rx="1.5" transform="rotate(45 47 679)" opacity=".51"/><rect width="228" height="3" x="34" y="527.5" rx="1.5" transform="rotate(45 148 529)" opacity=".83"/><rect width="235" height="3" x="201.5" y="543.5" rx="1.5" transform="rotate(45 319 545)" opacity=".56"/><rect width="227" height="3" x="662.5" y="232.5" rx="1.5" transform="rotate(45 776 234)" opacity=".97"/><rect width="295" height="3" x="53.5" y="367.5" rx="1.5" transform="rotate(45 201 369)" opacity=".94"/><rect width="158" height="3" x="27" y="587.5" rx="1.5" transform="rotate(45 106 589)" opacity=".44"/><rect width="88" height="3" x="359" y="605.5" rx="1.5" transform="rotate(45 403 607)" opacity=".74"/><rect width="564" height="3" x="292" y="459.5" rx="1.5" transform="rotate(45 574 461)" opacity=".66"/><rect width="112" height="3" x="371" y="437.5" rx="1.5" transform="rotate(45 427 439)" opacity=".12"/><rect width="160" height="3" x="133" y="766.5" rx="1.5" transform="rotate(45 213 768)" opacity=".38"/><rect width="376" height="3" x="554" y="474.5" rx="1.5" transform="rotate(45 742 476)" opacity=".45"/><rect width="162" height="3" x="467" y="755.5" rx="1.5" transform="rotate(45 548 757)" opacity=".9"/><rect width="54" height="3" x="531" y="537.5" rx="1.5" transform="rotate(45 558 539)" opacity=".31"/><rect width="111" height="3" x="-21.5" y="128.5" rx="1.5" transform="rotate(45 34 130)" opacity=".55"/><rect width="396" height="3" x="397" y="176.5" rx="1.5" transform="rotate(45 595 178)" opacity=".4"/><rect width="408" height="3" x="511" y="42.5" rx="1.5" transform="rotate(45 715 44)" opacity=".4"/><rect width="418" height="3" x="292" y="127.5" rx="1.5" transform="rotate(45 501 129)" opacity=".28"/><rect width="485" height="3" x="12.5" y="49.5" rx="1.5" transform="rotate(45 255 51)" opacity=".45"/><rect width="390" height="3" x="500" y="754.5" rx="1.5" transform="rotate(45 695 756)" opacity=".39"/><rect width="383" height="3" x="-153.5" y="433.5" rx="1.5" transform="rotate(45 38 435)" opacity=".38"/><rect width="479" height="3" x="453.5" y="660.5" rx="1.5" transform="rotate(45 693 662)" opacity=".28"/><rect width="118" height="3" x="636" y="554.5" rx="1.5" transform="rotate(45 695 556)" opacity=".36"/><rect width="228" height="3" x="449" y="649.5" rx="1.5" transform="rotate(45 563 651)" opacity=".91"/><rect width="93" height="3" x="450.5" y="687.5" rx="1.5" transform="rotate(45 497 689)" opacity=".54"/><rect width="341" height="3" x="604.5" y="49.5" rx="1.5" transform="rotate(45 775 51)" opacity=".42"/><rect width="586" height="3" x="-244" y="221.5" rx="1.5" transform="rotate(45 49 223)" opacity=".26"/><rect width="576" height="3" x="52" y="371.5" rx="1.5" transform="rotate(45 340 373)" opacity=".67"/><rect width="390" height="3" x="-18" y="694.5" rx="1.5" transform="rotate(45 177 696)" opacity=".24"/><rect width="150" height="3" x="253" y="642.5" rx="1.5" transform="rotate(45 328 644)" opacity=".56"/><rect width="316" height="3" x="205" y="24.5" rx="1.5" transform="rotate(45 363 26)" opacity=".23"/><rect width="415" height="3" x="540.5" y="358.5" rx="1.5" transform="rotate(45 748 360)" opacity=".43"/><rect width="480" height="3" x="117" y="188.5" rx="1.5" transform="rotate(45 357 190)" opacity=".53"/><rect width="122" height="3" x="584" y="68.5" rx="1.5" transform="rotate(45 645 70)" opacity=".33"/><rect width="485" height="3" x="-135.5" y="342.5" rx="1.5" transform="rotate(45 107 344)" opacity=".2"/><rect width="230" height="3" x="508" y="392.5" rx="1.5" transform="rotate(45 623 394)" opacity=".37"/><rect width="544" height="3" x="-151" y="437.5" rx="1.5" transform="rotate(45 121 439)" opacity=".37"/><rect width="198" height="3" x="106" y="576.5" rx="1.5" transform="rotate(45 205 578)" opacity=".33"/><rect width="165" height="3" x="27.5" y="753.5" rx="1.5" transform="rotate(45 110 755)" opacity=".54"/><rect width="519" height="3" x="138.5" y="302.5" rx="1.5" transform="rotate(45 398 304)" opacity=".59"/><rect width="607" height="3" x="317.5" y="615.5" rx="1.5" transform="rotate(45 621 617)" opacity=".91"/><rect width="377" height="3" x="-154.5" y="592.5" rx="1.5" transform="rotate(45 34 594)" opacity=".35"/><rect width="89" height="3" x="404.5" y="520.5" rx="1.5" transform="rotate(45 449 522)" opacity=".42"/><rect width="227" height="3" x="-80.5" y="759.5" rx="1.5" transform="rotate(45 33 761)" opacity=".39"/><rect width="427" height="3" x="-28.5" y="147.5" rx="1.5" transform="rotate(45 185 149)" opacity=".16"/><rect width="224" height="3" x="373" y="610.5" rx="1.5" transform="rotate(45 485 612)" opacity=".58"/><rect width="772" height="3" x="203" y="284.5" rx="1.5" transform="rotate(45 589 286)" opacity=".16"/><rect width="371" height="3" x="-39.5" y="245.5" rx="1.5" transform="rotate(45 146 247)" opacity=".62"/><rect width="61" height="3" x="393.5" y="127.5" rx="1.5" transform="rotate(45 424 129)" opacity=".61"/><rect width="338" height="3" x="-9" y="39.5" rx="1.5" transform="rotate(45 160 41)" opacity=".8"/><rect width="375" height="3" x="260.5" y="751.5" rx="1.5" transform="rotate(45 448 753)" opacity=".5"/><rect width="195" height="3" x="220.5" y="91.5" rx="1.5" transform="rotate(45 318 93)" opacity=".95"/><rect width="433" height="3" x="-84.5" y="643.5" rx="1.5" transform="rotate(45 132 645)" opacity=".93"/><rect width="524" height="3" x="202" y="34.5" rx="1.5" transform="rotate(45 464 36)" opacity=".74"/><rect width="345" height="3" x="79.5" y="627.5" rx="1.5" transform="rotate(45 252 629)" opacity=".66"/><rect width="468" height="3" x="39" y="713.5" rx="1.5" transform="rotate(45 273 715)" opacity=".99"/><rect width="167" height="3" x="27.5" y="120.5" rx="1.5" transform="rotate(45 111 122)" opacity=".99"/><rect width="440" height="3" x="94" y="272.5" rx="1.5" transform="rotate(45 314 274)" opacity=".81"/><rect width="478" height="3" x="465" y="215.5" rx="1.5" transform="rotate(45 704 217)" opacity=".76"/></g></svg>