<svg xmlns="http://www.w3.org/2000/svg" width="1440" height="560" preserveAspectRatio="none"><g mask="url(&quot;#SvgjsMask1232&quot;)" fill="none"><path d="M116.68 361.04l78.81 45.5v91l-78.81 45.5-78.81-45.5v-91zm157.62 0l78.81 45.5v91l-78.81 45.5-78.81-45.5v-91zm78.81-409.5l78.81 45.5v91l-78.81 45.5-78.81-45.5v-91zm157.62 0l78.81 45.5v91l-78.81 45.5-78.81-45.5v-91zm78.81 136.5l78.81 45.5v91l-78.81 45.5-78.81-45.5v-91zm-78.81 136.5l78.81 45.5v91l-78.81 45.5-78.81-45.5v-91zm236.43-136.5l78.82 45.5v91l-78.82 45.5-78.81-45.5v-91zm315.25 273l78.81 45.5v91l-78.81 45.5-78.81-45.5v-91zm78.81-409.5l78.81 45.5v91l-78.81 45.5-78.81-45.5v-91zm78.81 136.5l78.81 45.5v91l-78.81 45.5-78.81-45.5v-91zm78.81 409.5l78.81 45.5v91l-78.81 45.5-78.81-45.5v-91zm157.62-273l78.81 45.5v91l-78.81 45.5-78.81-45.5v-91z" stroke="rgba(81, 67, 215, 1)" stroke-width="2"/></g><defs><mask id="SvgjsMask1232"><path fill="#fff" d="M0 0h1440v560H0z"/></mask></defs></svg>