<svg xmlns="http://www.w3.org/2000/svg" viewBox="0 0 800 800"><defs><filter id="b" x="-100%" y="-100%" width="400%" height="400%" filterUnits="objectBoundingBox" primitiveUnits="userSpaceOnUse" color-interpolation-filters="sRGB"><feGaussianBlur stdDeviation="17 8" x="0%" y="0%" in="SourceGraphic" result="blur"/></filter><filter id="c" x="-100%" y="-100%" width="400%" height="400%" filterUnits="objectBoundingBox" primitiveUnits="userSpaceOnUse" color-interpolation-filters="sRGB"><feGaussianBlur stdDeviation="10 17" x="0%" y="0%" in="SourceGraphic" result="blur"/></filter><linearGradient x1="50%" y1="0%" x2="50%" y2="100%" id="a"><stop stop-color="#5143d7" offset="0%"/><stop stop-color="hsl(331, 87%, 61%)" offset="100%"/></linearGradient></defs><g stroke-width="16" stroke="url(#a)" fill="none"><path d="M388.453 233.461a23.095 23.095 0 0123.094.001l126.906 73.27A23.093 23.093 0 01550 326.73v146.538c0 8.25-4.402 15.875-11.547 20l-126.906 73.27a23.095 23.095 0 01-23.094-.001l-126.906-73.27A23.093 23.093 0 01250 473.27V326.731c0-8.25 4.402-15.875 11.547-20l126.906-73.27z" filter="url(#b)"/><path d="M400.453 233.461a23.095 23.095 0 0123.094.001l126.906 73.27A23.093 23.093 0 01562 326.73v146.538c0 8.25-4.402 15.875-11.547 20l-126.906 73.27a23.095 23.095 0 01-23.094-.001l-126.906-73.27A23.093 23.093 0 01262 473.27V326.731c0-8.25 4.402-15.875 11.547-20l126.906-73.27z" filter="url(#c)" opacity=".25"/><path d="M376.453 233.461a23.095 23.095 0 0123.094.001l126.906 73.27A23.093 23.093 0 01538 326.73v146.538c0 8.25-4.402 15.875-11.547 20l-126.906 73.27a23.095 23.095 0 01-23.094-.001l-126.906-73.27A23.093 23.093 0 01238 473.27V326.731c0-8.25 4.402-15.875 11.547-20l126.906-73.27z" filter="url(#c)" opacity=".25"/><path d="M388.453 233.461a23.095 23.095 0 0123.094.001l126.906 73.27A23.093 23.093 0 01550 326.73v146.538c0 8.25-4.402 15.875-11.547 20l-126.906 73.27a23.095 23.095 0 01-23.094-.001l-126.906-73.27A23.093 23.093 0 01250 473.27V326.731c0-8.25 4.402-15.875 11.547-20l126.906-73.27z"/></g></svg>