<svg width="960" height="540" xmlns="http://www.w3.org/2000/svg"><path d="M65 49.7l24.5 11.8 6 26.5-16.9 21.2H51.4L34.5 88l6-26.5zM556 463l23.5 11.3 5.7 25.4L569 520h-26l-16.2-20.3 5.7-25.4zm400 4l21.9 10.5 5.4 23.7-15.2 19h-24.2l-15.2-19 5.4-23.7zM563 168l13.3 6.4 3.3 14.4-9.2 11.5h-14.8l-9.2-11.5 3.3-14.4zM131 402l13.3 6.4 3.3 14.4-9.2 11.5h-14.8l-9.2-11.5 3.3-14.4zm557-222l23.5 11.3 5.7 25.4L701 237h-26l-16.2-20.3 5.7-25.4zm16 299l21.9 10.5 5.4 23.7-15.2 19h-24.2l-15.2-19 5.4-23.7zM894 96l21.1 10.2 5.2 22.8-14.6 18.3h-23.4L867.7 129l5.2-22.8zM133 4l20.3 9.8 5 22-14 17.6h-22.6l-14-17.6 5-22zm81 147l15.6 7.5 3.9 17-10.8 13.5h-17.4l-10.8-13.5 3.9-17zm639 348l13.3 6.4 3.3 14.4-9.2 11.5h-14.8l-9.2-11.5 3.3-14.4zM48 148l12.5 6 3.1 13.6-8.7 10.8H41.1l-8.7-10.8 3.1-13.6zm413-37l17.2 8.3 4.2 18.6-11.9 14.9h-19l-11.9-14.9 4.2-18.6zm213-2l18 8.7 4.4 19.4-12.4 15.6h-20l-12.4-15.6 4.4-19.4zM148 285l18 8.7 4.4 19.4-12.4 15.6h-20l-12.4-15.6 4.4-19.4zm392 81l17.2 8.3 4.2 18.6-11.9 14.9h-19l-11.9-14.9 4.2-18.6zm-46-95l15.6 7.5 3.9 17-10.8 13.5h-17.4l-10.8-13.5 3.9-17zm-99 139l14.1 6.8 3.4 15.2-9.7 12.2h-15.6l-9.7-12.2 3.4-15.2zm181-116l11.7 5.6 2.9 12.7-8.1 10.2h-13l-8.1-10.2 2.9-12.7z" fill="none" stroke="#5143d7" stroke-width="2"/></svg>