<svg xmlns="http://www.w3.org/2000/svg" viewBox="0 0 512 512"><circle cx="256" cy="256" r="256" fill="#e0e0e0"/><path fill="#fff" d="M64 164h384v232H64z"/><path d="M64 116h384v48.08H64z"/><circle cx="97.144" cy="140.04" r="6.696" fill="#00c454"/><circle cx="117.224" cy="140.04" r="6.696" fill="#fff"/><g fill="#666"><circle cx="137.28" cy="140.04" r="6.696"/><path d="M400 151.8H192.328l14.344-23.512h207.68z"/></g><path d="M221.784 134.792l1.392 5.344c.304 1.168.584 2.256.784 3.344h.064c.24-1.064.584-2.192.936-3.32l1.712-5.368h1.608l1.632 5.256c.392 1.256.696 2.368.928 3.432h.072c.168-1.064.456-2.168.808-3.408l1.504-5.28h1.888l-3.392 10.512h-1.744l-1.608-5.016c-.368-1.176-.672-2.216-.928-3.464h-.048c-.256 1.264-.584 2.352-.952 3.48l-1.696 5H223l-3.168-10.512h1.952zm16.216 0l1.392 5.344c.304 1.168.584 2.256.784 3.344h.072c.232-1.064.584-2.192.928-3.32l1.72-5.368h1.608l1.624 5.256c.392 1.256.696 2.368.936 3.432h.064c.168-1.064.464-2.168.808-3.408l1.504-5.28h1.888l-3.392 10.512H246.2l-1.608-5.016c-.368-1.176-.672-2.216-.936-3.464h-.04a30.152 30.152 0 01-.96 3.48l-1.696 5h-1.736l-3.168-10.512H238zm16.216 0l1.392 5.344c.304 1.168.584 2.256.784 3.344h.072c.232-1.064.584-2.192.928-3.32l1.72-5.368h1.608l1.624 5.256c.392 1.256.696 2.368.936 3.432h.064c.168-1.064.464-2.168.808-3.408l1.504-5.28h1.888l-3.392 10.512h-1.736l-1.608-5.016c-.368-1.176-.672-2.216-.936-3.464h-.04a30.152 30.152 0 01-.96 3.48l-1.696 5h-1.736l-3.168-10.512h1.944z" fill="#fff"/><path d="M64 372.688h62.144L149.456 396H64zm384 0h-62.144L362.544 396H448z" fill="#666"/><path d="M150.256 252.312l6.704 25.776c1.464 5.648 2.824 10.888 3.768 16.136h.312c1.152-5.136 2.824-10.584 4.504-16.032l8.28-25.88h7.752l7.856 25.352c1.888 6.072 3.36 11.416 4.504 16.552h.312c.832-5.136 2.2-10.48 3.872-16.448l7.224-25.456h9.12l-16.344 50.704h-8.384l-7.752-24.2c-1.784-5.656-3.248-10.688-4.504-16.664h-.2c-1.256 6.08-2.824 11.32-4.608 16.768l-8.176 24.096h-8.384l-15.288-50.704h9.432zm78.344 0l6.704 25.776c1.464 5.648 2.824 10.888 3.768 16.136h.312c1.152-5.136 2.824-10.584 4.504-16.032l8.28-25.88h7.752l7.856 25.352c1.888 6.072 3.36 11.416 4.504 16.552h.312c.832-5.136 2.2-10.48 3.872-16.448l7.224-25.456h9.12l-16.344 50.704h-8.384l-7.752-24.2c-1.784-5.656-3.248-10.688-4.504-16.664h-.208c-1.256 6.08-2.824 11.32-4.608 16.768l-8.176 24.096h-8.384l-15.288-50.704h9.44zm78.352 0l6.704 25.776c1.464 5.648 2.824 10.888 3.768 16.136h.312c1.152-5.136 2.824-10.584 4.504-16.032l8.28-25.88h7.752l7.856 25.352c1.888 6.072 3.36 11.416 4.504 16.552h.312c.832-5.136 2.2-10.48 3.872-16.448l7.224-25.456h9.12l-16.344 50.704h-8.384l-7.752-24.2c-1.784-5.656-3.248-10.688-4.504-16.664h-.208c-1.256 6.08-2.824 11.32-4.608 16.768l-8.176 24.096H312.8l-15.288-50.704h9.44z"/></svg>